<mxfile host="app.diagrams.net" agent="Mozilla/5.0 (Windows NT 10.0; Win64; x64) AppleWebKit/537.36 (KHTML, like Gecko) Chrome/127.0.0.0 Safari/537.36 Edg/127.0.0.0" version="24.7.6">
  <diagram name="Página-1" id="J4O28KDKxb36ilL5bLqR">
    <mxGraphModel dx="3663" dy="928" grid="1" gridSize="10" guides="1" tooltips="1" connect="1" arrows="1" fold="1" page="1" pageScale="1" pageWidth="827" pageHeight="1169" math="0" shadow="0">
      <root>
        <mxCell id="0" />
        <mxCell id="1" parent="0" />
        <mxCell id="lEJc4MWBouMx5ki0AGlb-3" value="" style="edgeStyle=none;curved=1;rounded=0;orthogonalLoop=1;jettySize=auto;html=1;fontSize=12;startSize=8;endSize=8;" edge="1" parent="1" source="-GI7yRm1N112yiGVYN-5-2" target="-GI7yRm1N112yiGVYN-5-3">
          <mxGeometry relative="1" as="geometry" />
        </mxCell>
        <mxCell id="-GI7yRm1N112yiGVYN-5-2" value="nota1 = 7,0" style="shape=parallelogram;perimeter=parallelogramPerimeter;whiteSpace=wrap;html=1;fixedSize=1;" parent="1" vertex="1">
          <mxGeometry x="250" y="340" width="120" height="60" as="geometry" />
        </mxCell>
        <mxCell id="lEJc4MWBouMx5ki0AGlb-4" value="" style="edgeStyle=none;curved=1;rounded=0;orthogonalLoop=1;jettySize=auto;html=1;fontSize=12;startSize=8;endSize=8;" edge="1" parent="1" source="-GI7yRm1N112yiGVYN-5-3" target="-GI7yRm1N112yiGVYN-5-4">
          <mxGeometry relative="1" as="geometry" />
        </mxCell>
        <mxCell id="-GI7yRm1N112yiGVYN-5-3" value="nota2 = 5,0" style="shape=parallelogram;perimeter=parallelogramPerimeter;whiteSpace=wrap;html=1;fixedSize=1;" parent="1" vertex="1">
          <mxGeometry x="250" y="450" width="120" height="60" as="geometry" />
        </mxCell>
        <mxCell id="lEJc4MWBouMx5ki0AGlb-5" value="" style="edgeStyle=none;curved=1;rounded=0;orthogonalLoop=1;jettySize=auto;html=1;fontSize=12;startSize=8;endSize=8;" edge="1" parent="1" source="-GI7yRm1N112yiGVYN-5-4" target="lEJc4MWBouMx5ki0AGlb-2">
          <mxGeometry relative="1" as="geometry" />
        </mxCell>
        <mxCell id="-GI7yRm1N112yiGVYN-5-4" value="media = (nota1 + nota2) / 2" style="rounded=0;whiteSpace=wrap;html=1;" parent="1" vertex="1">
          <mxGeometry x="250" y="550" width="120" height="60" as="geometry" />
        </mxCell>
        <mxCell id="lEJc4MWBouMx5ki0AGlb-6" value="" style="edgeStyle=none;curved=1;rounded=0;orthogonalLoop=1;jettySize=auto;html=1;fontSize=12;startSize=8;endSize=8;" edge="1" parent="1" source="lEJc4MWBouMx5ki0AGlb-1" target="-GI7yRm1N112yiGVYN-5-2">
          <mxGeometry relative="1" as="geometry" />
        </mxCell>
        <mxCell id="lEJc4MWBouMx5ki0AGlb-1" value="Inicio" style="strokeWidth=2;html=1;shape=mxgraph.flowchart.terminator;whiteSpace=wrap;" vertex="1" parent="1">
          <mxGeometry x="256.25" y="240" width="107.5" height="60" as="geometry" />
        </mxCell>
        <mxCell id="lEJc4MWBouMx5ki0AGlb-15" value="" style="edgeStyle=none;curved=1;rounded=0;orthogonalLoop=1;jettySize=auto;html=1;fontSize=12;startSize=8;endSize=8;" edge="1" parent="1" source="lEJc4MWBouMx5ki0AGlb-2" target="lEJc4MWBouMx5ki0AGlb-12">
          <mxGeometry relative="1" as="geometry" />
        </mxCell>
        <mxCell id="lEJc4MWBouMx5ki0AGlb-18" value="" style="edgeStyle=none;curved=1;rounded=0;orthogonalLoop=1;jettySize=auto;html=1;fontSize=12;startSize=8;endSize=8;" edge="1" parent="1" source="lEJc4MWBouMx5ki0AGlb-2" target="lEJc4MWBouMx5ki0AGlb-17">
          <mxGeometry relative="1" as="geometry" />
        </mxCell>
        <mxCell id="lEJc4MWBouMx5ki0AGlb-2" value="media &amp;gt;= 7,0" style="strokeWidth=2;html=1;shape=mxgraph.flowchart.decision;whiteSpace=wrap;" vertex="1" parent="1">
          <mxGeometry x="260" y="660" width="100" height="100" as="geometry" />
        </mxCell>
        <mxCell id="lEJc4MWBouMx5ki0AGlb-26" value="" style="edgeStyle=none;curved=1;rounded=0;orthogonalLoop=1;jettySize=auto;html=1;fontSize=12;startSize=8;endSize=8;" edge="1" parent="1" source="lEJc4MWBouMx5ki0AGlb-12" target="lEJc4MWBouMx5ki0AGlb-25">
          <mxGeometry relative="1" as="geometry" />
        </mxCell>
        <mxCell id="lEJc4MWBouMx5ki0AGlb-12" value="Você está aprovado(a)&amp;nbsp;&lt;div&gt;com a média *media*.&amp;nbsp;&lt;/div&gt;&lt;div&gt;Parabéns!&lt;/div&gt;" style="shape=display;whiteSpace=wrap;html=1;" vertex="1" parent="1">
          <mxGeometry x="430" y="670" width="180" height="80" as="geometry" />
        </mxCell>
        <mxCell id="lEJc4MWBouMx5ki0AGlb-23" value="" style="edgeStyle=none;curved=1;rounded=0;orthogonalLoop=1;jettySize=auto;html=1;fontSize=12;startSize=8;endSize=8;" edge="1" parent="1" source="lEJc4MWBouMx5ki0AGlb-17" target="lEJc4MWBouMx5ki0AGlb-22">
          <mxGeometry relative="1" as="geometry" />
        </mxCell>
        <mxCell id="lEJc4MWBouMx5ki0AGlb-17" value="Você está reprovado(a)&amp;nbsp;&lt;div&gt;com a média *media*.&lt;/div&gt;&lt;div&gt;Você precisa&lt;/div&gt;&lt;div&gt;estudar mais!&lt;/div&gt;" style="shape=display;whiteSpace=wrap;html=1;" vertex="1" parent="1">
          <mxGeometry y="670" width="195" height="80" as="geometry" />
        </mxCell>
        <mxCell id="lEJc4MWBouMx5ki0AGlb-20" value="fim" style="strokeWidth=2;html=1;shape=mxgraph.flowchart.terminator;whiteSpace=wrap;" vertex="1" parent="1">
          <mxGeometry x="260" y="810" width="100" height="60" as="geometry" />
        </mxCell>
        <mxCell id="lEJc4MWBouMx5ki0AGlb-24" value="" style="edgeStyle=none;curved=1;rounded=0;orthogonalLoop=1;jettySize=auto;html=1;fontSize=12;startSize=8;endSize=8;" edge="1" parent="1" source="lEJc4MWBouMx5ki0AGlb-22" target="lEJc4MWBouMx5ki0AGlb-20">
          <mxGeometry relative="1" as="geometry" />
        </mxCell>
        <mxCell id="lEJc4MWBouMx5ki0AGlb-22" value="" style="shape=waypoint;sketch=0;size=6;pointerEvents=1;points=[];fillColor=default;resizable=0;rotatable=0;perimeter=centerPerimeter;snapToPoint=1;" vertex="1" parent="1">
          <mxGeometry x="87.5" y="830" width="20" height="20" as="geometry" />
        </mxCell>
        <mxCell id="lEJc4MWBouMx5ki0AGlb-27" value="" style="edgeStyle=none;curved=1;rounded=0;orthogonalLoop=1;jettySize=auto;html=1;fontSize=12;startSize=8;endSize=8;" edge="1" parent="1" source="lEJc4MWBouMx5ki0AGlb-25" target="lEJc4MWBouMx5ki0AGlb-20">
          <mxGeometry relative="1" as="geometry" />
        </mxCell>
        <mxCell id="lEJc4MWBouMx5ki0AGlb-25" value="" style="shape=waypoint;sketch=0;size=6;pointerEvents=1;points=[];fillColor=default;resizable=0;rotatable=0;perimeter=centerPerimeter;snapToPoint=1;" vertex="1" parent="1">
          <mxGeometry x="510" y="830" width="20" height="20" as="geometry" />
        </mxCell>
        <mxCell id="lEJc4MWBouMx5ki0AGlb-28" value="Exercício 3" style="text;html=1;align=center;verticalAlign=middle;whiteSpace=wrap;rounded=0;fontSize=16;" vertex="1" parent="1">
          <mxGeometry x="247.5" y="180" width="125" height="30" as="geometry" />
        </mxCell>
        <mxCell id="lEJc4MWBouMx5ki0AGlb-31" value="" style="edgeStyle=orthogonalEdgeStyle;rounded=0;orthogonalLoop=1;jettySize=auto;html=1;" edge="1" parent="1" source="lEJc4MWBouMx5ki0AGlb-29" target="lEJc4MWBouMx5ki0AGlb-30">
          <mxGeometry relative="1" as="geometry" />
        </mxCell>
        <mxCell id="lEJc4MWBouMx5ki0AGlb-29" value="inicio" style="strokeWidth=2;html=1;shape=mxgraph.flowchart.terminator;whiteSpace=wrap;" vertex="1" parent="1">
          <mxGeometry x="-464" y="110" width="100" height="60" as="geometry" />
        </mxCell>
        <mxCell id="lEJc4MWBouMx5ki0AGlb-35" value="" style="edgeStyle=orthogonalEdgeStyle;rounded=0;orthogonalLoop=1;jettySize=auto;html=1;" edge="1" parent="1" source="lEJc4MWBouMx5ki0AGlb-30" target="lEJc4MWBouMx5ki0AGlb-34">
          <mxGeometry relative="1" as="geometry" />
        </mxCell>
        <mxCell id="lEJc4MWBouMx5ki0AGlb-30" value="nome = Pedro" style="shape=parallelogram;html=1;strokeWidth=2;perimeter=parallelogramPerimeter;whiteSpace=wrap;rounded=1;arcSize=12;size=0.23;" vertex="1" parent="1">
          <mxGeometry x="-467" y="220" width="106" height="60" as="geometry" />
        </mxCell>
        <mxCell id="lEJc4MWBouMx5ki0AGlb-37" value="" style="edgeStyle=orthogonalEdgeStyle;rounded=0;orthogonalLoop=1;jettySize=auto;html=1;" edge="1" parent="1" source="lEJc4MWBouMx5ki0AGlb-34" target="lEJc4MWBouMx5ki0AGlb-36">
          <mxGeometry relative="1" as="geometry" />
        </mxCell>
        <mxCell id="lEJc4MWBouMx5ki0AGlb-34" value="idade = 18" style="shape=parallelogram;html=1;strokeWidth=2;perimeter=parallelogramPerimeter;whiteSpace=wrap;rounded=1;arcSize=12;size=0.23;" vertex="1" parent="1">
          <mxGeometry x="-463" y="320" width="100" height="60" as="geometry" />
        </mxCell>
        <mxCell id="lEJc4MWBouMx5ki0AGlb-40" value="" style="edgeStyle=orthogonalEdgeStyle;rounded=0;orthogonalLoop=1;jettySize=auto;html=1;" edge="1" parent="1" source="lEJc4MWBouMx5ki0AGlb-36" target="lEJc4MWBouMx5ki0AGlb-39">
          <mxGeometry relative="1" as="geometry" />
        </mxCell>
        <mxCell id="lEJc4MWBouMx5ki0AGlb-42" value="" style="edgeStyle=orthogonalEdgeStyle;rounded=0;orthogonalLoop=1;jettySize=auto;html=1;" edge="1" parent="1" source="lEJc4MWBouMx5ki0AGlb-36" target="lEJc4MWBouMx5ki0AGlb-41">
          <mxGeometry relative="1" as="geometry" />
        </mxCell>
        <mxCell id="lEJc4MWBouMx5ki0AGlb-36" value="idade &amp;gt;= 18" style="strokeWidth=2;html=1;shape=mxgraph.flowchart.decision;whiteSpace=wrap;" vertex="1" parent="1">
          <mxGeometry x="-464" y="420" width="100" height="100" as="geometry" />
        </mxCell>
        <mxCell id="lEJc4MWBouMx5ki0AGlb-49" value="" style="edgeStyle=orthogonalEdgeStyle;rounded=0;orthogonalLoop=1;jettySize=auto;html=1;" edge="1" parent="1" source="lEJc4MWBouMx5ki0AGlb-39" target="lEJc4MWBouMx5ki0AGlb-48">
          <mxGeometry relative="1" as="geometry" />
        </mxCell>
        <mxCell id="lEJc4MWBouMx5ki0AGlb-39" value="*nome* agora que possui&amp;nbsp;&lt;div&gt;*idade* anos, seu voto é obrigatório.&lt;/div&gt;" style="strokeWidth=2;html=1;shape=mxgraph.flowchart.display;whiteSpace=wrap;" vertex="1" parent="1">
          <mxGeometry x="-270" y="420" width="190" height="102.5" as="geometry" />
        </mxCell>
        <mxCell id="lEJc4MWBouMx5ki0AGlb-45" value="" style="edgeStyle=orthogonalEdgeStyle;rounded=0;orthogonalLoop=1;jettySize=auto;html=1;" edge="1" parent="1" source="lEJc4MWBouMx5ki0AGlb-41" target="lEJc4MWBouMx5ki0AGlb-44">
          <mxGeometry relative="1" as="geometry" />
        </mxCell>
        <mxCell id="lEJc4MWBouMx5ki0AGlb-41" value="*nome* seu voto não é&amp;nbsp;&lt;div&gt;obrigatório, pois ainda não atingiu *idade* anos.&lt;/div&gt;" style="strokeWidth=2;html=1;shape=mxgraph.flowchart.display;whiteSpace=wrap;" vertex="1" parent="1">
          <mxGeometry x="-740" y="420" width="190" height="102.5" as="geometry" />
        </mxCell>
        <mxCell id="lEJc4MWBouMx5ki0AGlb-43" value="fim" style="strokeWidth=2;html=1;shape=mxgraph.flowchart.terminator;whiteSpace=wrap;" vertex="1" parent="1">
          <mxGeometry x="-464" y="623.75" width="100" height="60" as="geometry" />
        </mxCell>
        <mxCell id="lEJc4MWBouMx5ki0AGlb-47" value="" style="edgeStyle=orthogonalEdgeStyle;rounded=0;orthogonalLoop=1;jettySize=auto;html=1;entryX=0;entryY=0.5;entryDx=0;entryDy=0;entryPerimeter=0;" edge="1" parent="1" source="lEJc4MWBouMx5ki0AGlb-44" target="lEJc4MWBouMx5ki0AGlb-43">
          <mxGeometry relative="1" as="geometry">
            <mxPoint x="-545" y="653.75" as="targetPoint" />
          </mxGeometry>
        </mxCell>
        <mxCell id="lEJc4MWBouMx5ki0AGlb-44" value="" style="shape=waypoint;sketch=0;size=6;pointerEvents=1;points=[];fillColor=default;resizable=0;rotatable=0;perimeter=centerPerimeter;snapToPoint=1;strokeWidth=2;" vertex="1" parent="1">
          <mxGeometry x="-655" y="643.75" width="20" height="20" as="geometry" />
        </mxCell>
        <mxCell id="lEJc4MWBouMx5ki0AGlb-48" value="" style="shape=waypoint;sketch=0;size=6;pointerEvents=1;points=[];fillColor=default;resizable=0;rotatable=0;perimeter=centerPerimeter;snapToPoint=1;strokeWidth=2;" vertex="1" parent="1">
          <mxGeometry x="-185" y="643.75" width="20" height="20" as="geometry" />
        </mxCell>
        <mxCell id="lEJc4MWBouMx5ki0AGlb-50" style="edgeStyle=orthogonalEdgeStyle;rounded=0;orthogonalLoop=1;jettySize=auto;html=1;entryX=1;entryY=0.5;entryDx=0;entryDy=0;entryPerimeter=0;" edge="1" parent="1" source="lEJc4MWBouMx5ki0AGlb-48" target="lEJc4MWBouMx5ki0AGlb-43">
          <mxGeometry relative="1" as="geometry" />
        </mxCell>
        <mxCell id="lEJc4MWBouMx5ki0AGlb-51" value="Exercício 2" style="text;html=1;align=center;verticalAlign=middle;whiteSpace=wrap;rounded=0;" vertex="1" parent="1">
          <mxGeometry x="-450.5" y="60" width="73" height="30" as="geometry" />
        </mxCell>
        <mxCell id="lEJc4MWBouMx5ki0AGlb-57" value="" style="edgeStyle=orthogonalEdgeStyle;rounded=0;orthogonalLoop=1;jettySize=auto;html=1;" edge="1" parent="1" source="lEJc4MWBouMx5ki0AGlb-52" target="lEJc4MWBouMx5ki0AGlb-55">
          <mxGeometry relative="1" as="geometry" />
        </mxCell>
        <mxCell id="lEJc4MWBouMx5ki0AGlb-52" value="inicio" style="strokeWidth=2;html=1;shape=mxgraph.flowchart.terminator;whiteSpace=wrap;" vertex="1" parent="1">
          <mxGeometry x="-1290" y="120" width="100" height="60" as="geometry" />
        </mxCell>
        <mxCell id="lEJc4MWBouMx5ki0AGlb-53" value="exercício 1" style="text;html=1;align=center;verticalAlign=middle;whiteSpace=wrap;rounded=0;" vertex="1" parent="1">
          <mxGeometry x="-1290" y="70" width="100" height="30" as="geometry" />
        </mxCell>
        <mxCell id="lEJc4MWBouMx5ki0AGlb-58" value="" style="edgeStyle=orthogonalEdgeStyle;rounded=0;orthogonalLoop=1;jettySize=auto;html=1;" edge="1" parent="1" source="lEJc4MWBouMx5ki0AGlb-55" target="lEJc4MWBouMx5ki0AGlb-56">
          <mxGeometry relative="1" as="geometry" />
        </mxCell>
        <mxCell id="lEJc4MWBouMx5ki0AGlb-55" value="meninos = 14" style="shape=parallelogram;html=1;strokeWidth=2;perimeter=parallelogramPerimeter;whiteSpace=wrap;rounded=1;arcSize=12;size=0.23;" vertex="1" parent="1">
          <mxGeometry x="-1295" y="230" width="110" height="60" as="geometry" />
        </mxCell>
        <mxCell id="lEJc4MWBouMx5ki0AGlb-62" value="" style="edgeStyle=orthogonalEdgeStyle;rounded=0;orthogonalLoop=1;jettySize=auto;html=1;" edge="1" parent="1" source="lEJc4MWBouMx5ki0AGlb-56" target="lEJc4MWBouMx5ki0AGlb-59">
          <mxGeometry relative="1" as="geometry" />
        </mxCell>
        <mxCell id="lEJc4MWBouMx5ki0AGlb-56" value="meninas = 16" style="shape=parallelogram;html=1;strokeWidth=2;perimeter=parallelogramPerimeter;whiteSpace=wrap;rounded=1;arcSize=12;size=0.23;" vertex="1" parent="1">
          <mxGeometry x="-1295" y="340" width="110" height="60" as="geometry" />
        </mxCell>
        <mxCell id="lEJc4MWBouMx5ki0AGlb-59" value="meninos &amp;lt; meninas" style="strokeWidth=2;html=1;shape=mxgraph.flowchart.decision;whiteSpace=wrap;" vertex="1" parent="1">
          <mxGeometry x="-1305" y="440" width="130" height="120" as="geometry" />
        </mxCell>
        <mxCell id="lEJc4MWBouMx5ki0AGlb-60" value="exercício 4" style="text;html=1;align=center;verticalAlign=middle;whiteSpace=wrap;rounded=0;" vertex="1" parent="1">
          <mxGeometry x="1191" y="40" width="99" height="30" as="geometry" />
        </mxCell>
        <mxCell id="lEJc4MWBouMx5ki0AGlb-61" value="inicio" style="strokeWidth=2;html=1;shape=mxgraph.flowchart.terminator;whiteSpace=wrap;" vertex="1" parent="1">
          <mxGeometry x="1191" y="90" width="100" height="60" as="geometry" />
        </mxCell>
      </root>
    </mxGraphModel>
  </diagram>
</mxfile>
